<svg width="28" height="28" xmlns="http://www.w3.org/2000/svg" xmlns:xlink="http://www.w3.org/1999/xlink"><defs><path d="M.015 13.184c0 7.264 5.89 13.156 13.156 13.156 7.268 0 13.159-5.892 13.159-13.156C26.33 5.916 20.438.026 13.171.026S.014 5.916.014 13.184z" id="a"/></defs><g transform="translate(1 1)" fill="none" fill-rule="evenodd"><mask id="b" fill="#fff"><use xlink:href="#a"/></mask><use stroke="#CCCACD" stroke-width=".5" xlink:href="#a"/><path fill="#FFF" mask="url(#b)" d="M-12 27.866h50.344V-1.5H-12z"/><path fill="#BD0034" mask="url(#b)" d="M21.709 9.117L38.344-.195V-1.5h-1.148L18.23 9.117zm-.785 8.72l17.42 9.749v-1.949l-13.94-7.8zM-12 .735L2.902 9.117h3.482L-12-1.215zM5.594 17.837l-17.593 9.858v.171h3.178L9.077 17.837z"/><path fill="#1A237B" mask="url(#b)" d="M34.898-1.5H17.272v9.871zM9.49-1.5H-8.068L9.49 8.371zM-7.07 27.866H9.49v-9.28zm24.342 0h16.612l-16.612-9.28zM-12 17.837v6.966L.373 17.837zm0-8.72H.373L-12 2.142z"/><path fill="#BD0034" mask="url(#b)" d="M11.046-1.5v12.361H-12v5.235h23.046v11.77h4.668v-11.77h22.63v-5.235h-22.63V-1.5z"/></g></svg>