<svg width="50" height="51" xmlns="http://www.w3.org/2000/svg"><g fill="none" fill-rule="evenodd"><path d="M24.942.171c13.718 0 24.942 11.224 24.942 24.942S38.66 50.055 24.942 50.055 0 38.83 0 25.113 11.224.171 24.942.171" fill="#DD4B39"/><path fill="#FFF" d="M37.569 20.904v2.806h2.805v2.806H37.57v2.806h-2.807v-2.806h-2.805V23.71h2.805v-2.806zM12.315 32.128c-3.741-3.742-3.741-10.289.156-14.03 2.806-2.806 6.859-3.43 10.444-2.026l1.403.779 1.559 1.091-2.494 2.494-.936-.623c-2.182-1.403-5.3-1.091-7.326.935-2.338 2.339-2.494 6.548 0 9.042 2.338 2.494 6.547 2.494 8.73 0 .623-.624 1.247-1.56 1.403-2.494v-.312h-5.612v-3.118h8.885l.156.78v2.182c-.156 2.026-.935 4.053-2.338 5.456-3.742 3.585-10.289 3.585-14.03-.156"/></g></svg>