<svg width="52" height="53" xmlns="http://www.w3.org/2000/svg"><g fill="none" fill-rule="evenodd"><path d="M25.942 1.171c13.718 0 24.942 11.224 24.942 24.942S39.66 51.055 25.942 51.055 1 39.83 1 26.113 12.224 1.171 25.942 1.171" stroke="#DD4B39" stroke-width="2" fill="#EBEBEB"/><path fill="#DD4B39" d="M38.569 21.904v2.806h2.805v2.806H38.57v2.806h-2.807v-2.806h-2.805V24.71h2.805v-2.806zM13.315 33.128c-3.741-3.742-3.741-10.289.156-14.03 2.806-2.806 6.859-3.43 10.444-2.026l1.403.779 1.559 1.091-2.494 2.494-.936-.623c-2.182-1.403-5.3-1.091-7.326.935-2.338 2.339-2.494 6.548 0 9.042 2.338 2.494 6.547 2.494 8.73 0 .623-.624 1.247-1.56 1.403-2.494v-.312h-5.612v-3.118h8.885l.156.78v2.182c-.156 2.026-.935 4.053-2.338 5.456-3.742 3.585-10.289 3.585-14.03-.156"/></g></svg>