<svg width="43" height="43" xmlns="http://www.w3.org/2000/svg"><g fill="#005885" fill-rule="evenodd"><path d="M21.502.1A21.083 21.083 0 0 0 3.94 9.492l-.89 1.332-1.785-6.318a.664.664 0 0 0-.826-.432c-.324.112-.512.459-.414.833l2.27 8.037a.679.679 0 0 0 .622.456c.05 0 .126 0 .161-.011l7.938-2.31c.338-.115.526-.462.427-.836-.11-.328-.453-.518-.823-.418l-6.815 1.982 1.15-1.715c3.768-5.619 9.8-8.842 16.546-8.842 11.065 0 20.066 9.107 20.066 20.3 0 11.193-9.001 20.3-20.066 20.3-6.415 0-12.288-2.99-16.115-8.203a.6.6 0 0 0-.453-.212.548.548 0 0 0-.336.115c-.195.163-.312.512-.098.8C8.505 39.85 14.7 43 21.502 43c11.691 0 21.203-9.623 21.203-21.45C42.705 9.722 33.193.1 21.502.1"/><path d="M22 11.255c.096.011.294.063.344.1l6.959 6.032v11.36H14.697v-11.36l6.957-6.03c.052-.04.25-.091.346-.102m10.833 7.557c-.02-.023-.04-.043-9.693-8.415C22.76 10.07 22.311 10 22 10c-.311 0-.761.07-1.14.397-9.654 8.372-9.673 8.392-9.694 8.415a.64.64 0 0 0-.166.428.62.62 0 0 0 .612.627.61.61 0 0 0 .302-.08c.036-.02.07-.039 1.56-1.338v10.924c0 .34.28.627.611.627h15.83a.628.628 0 0 0 .612-.627V18.45c1.49 1.3 1.524 1.318 1.558 1.337.09.053.195.08.303.08A.62.62 0 0 0 33 19.24a.639.639 0 0 0-.167-.428"/></g></svg>