<svg width="76" height="76" xmlns="http://www.w3.org/2000/svg"><path d="M55.913 28.788c0-10.104-8.221-18.325-18.325-18.325-10.105 0-18.325 8.22-18.325 18.325 0 3.829 1.202 7.502 3.478 10.632l-.99.619C15.136 44.256 10.527 50.742 8.75 58.324a35.227 35.227 0 0 1-6.7-20.736C2.05 17.992 17.992 2.05 37.588 2.05c19.596 0 35.537 15.942 35.537 35.538a35.221 35.221 0 0 1-6.702 20.738c-1.787-7.605-6.433-14.095-13.1-18.291l-.857-.634a18.016 18.016 0 0 0 3.447-10.613M23.978 41.4l.253-.148.205.209c3.49 3.58 8.16 5.552 13.152 5.552 4.992 0 9.663-1.973 13.153-5.553l.203-.21.253.146c7.042 4.04 12.045 11.237 13.392 19.259-6.781 7.926-16.62 12.47-27.001 12.47-10.38 0-20.215-4.542-26.995-12.462 1.356-7.948 6.356-15.146 13.385-19.263m13.61 3.363c-8.864 0-16.075-7.211-16.075-16.075 0-8.81 7.21-15.975 16.075-15.975 8.864 0 16.075 7.21 16.075 16.075 0 8.809-7.211 15.975-16.075 15.975m0-44.763C16.862 0 0 16.862 0 37.588c0 8.627 2.864 16.752 8.28 23.496.58.72 1.186 1.423 1.804 2.086 7.1 7.63 17.126 12.005 27.504 12.005s20.403-4.376 27.504-12.006a37.978 37.978 0 0 0 1.802-2.084 37.648 37.648 0 0 0 8.28-23.497C75.175 16.862 58.314 0 37.589 0" stroke="#FFF" stroke-width=".5" fill="#FFF" fill-rule="evenodd"/></svg>