<svg width="72" height="75" xmlns="http://www.w3.org/2000/svg"><path d="M61.9 36.4c-4.3 0-7.7-3.5-7.7-7.7 0-4.3 3.5-7.7 7.7-7.7s7.7 3.5 7.7 7.7-3.4 7.7-7.7 7.7m9.7-7.7c0-5-3.8-9.2-8.7-9.7V2c0-.6-.4-1-1-1s-1 .4-1 1v17c-4.9.5-8.7 4.6-8.7 9.7 0 5 3.8 9.2 8.7 9.7v35.5c0 .6.4 1 1 1s1-.4 1-1V38.4c4.9-.6 8.7-4.7 8.7-9.7M9.7 36.4c-4.3 0-7.7-3.5-7.7-7.7S5.4 21 9.7 21c4.2 0 7.7 3.5 7.7 7.7s-3.5 7.7-7.7 7.7m1-17.4V1c0-.6-.4-1-1-1s-1 .4-1 1v18c-4.9.5-8.7 4.6-8.7 9.7 0 5 3.8 9.2 8.7 9.7v33.7c0 .6.4 1 1 1s1-.4 1-1V38.4c4.9-.5 8.7-4.6 8.7-9.7s-3.8-9.2-8.7-9.7m25.2 35.3c-4.3 0-7.7-3.5-7.7-7.7 0-4.3 3.5-7.7 7.7-7.7s7.7 3.5 7.7 7.7c0 4.3-3.5 7.7-7.7 7.7m1-17.4V1c0-.6-.4-1-1-1s-1 .4-1 1v35.9c-4.9.5-8.7 4.6-8.7 9.7 0 5 3.8 9.2 8.7 9.7v16.5c0 .6.4 1 1 1s1-.4 1-1V56.3c4.9-.5 8.7-4.6 8.7-9.7 0-5-3.8-9.2-8.7-9.7" stroke="#FFF" stroke-width=".5" fill="#FFF" fill-rule="evenodd"/></svg>