<svg width="78" height="41" xmlns="http://www.w3.org/2000/svg"><path d="M67.75 9.334c-.29 0-.562.111-.766.316L37.817 38.816a1.075 1.075 0 0 0-.316.767c0 .29.112.562.316.766.411.41 1.117.414 1.532 0l29.167-29.167a1.085 1.085 0 0 0 0-1.533 1.075 1.075 0 0 0-.766-.315m3.808 14.89C73.843 29.105 75 34.267 75 39.58v1.084h2.167V39.58a38.672 38.672 0 0 0-3.954-17.01l-1.655 1.654zM55.594 4.954A38.635 38.635 0 0 0 38.584 1C17.307 1 0 18.309 0 39.584v1.083h2.166v-1.083c0-20.08 16.337-36.417 36.417-36.417 5.326 0 10.49 1.158 15.357 3.442l1.654-1.655z" fill="#005885" fill-rule="evenodd" stroke="#005885" stroke-width=".5"/></svg>