<svg width="63" height="64" xmlns="http://www.w3.org/2000/svg"><g fill="#FFF" fill-rule="evenodd" stroke="#FFF" stroke-width=".5"><path d="M36.202 26.096c-.3-.015-.538.082-.77.292-.18.19-.285.444-.295.756v.002a.97.97 0 0 0 .273.748c1.959 2.172 2.947 4.808 2.945 7.846-.006 3.072-1.101 5.765-3.255 8.005l-14.25 14.74c-2.151 2.2-4.763 3.317-7.764 3.322a10.87 10.87 0 0 1-2.465-.278c-2.05-.456-3.852-1.482-5.353-3.046-2.122-2.244-3.2-4.954-3.203-8.057-.005-3.138 1.074-5.85 3.204-8.061L16.76 30.478c.216-.213.315-.454.319-.767a.971.971 0 0 0-.311-.747.932.932 0 0 0-.726-.332c-.321-.011-.516.086-.722.283L3.843 40.842C1.298 43.467.005 46.69 0 50.425c-.004 3.696 1.274 6.92 3.796 9.587 1.773 1.856 3.904 3.084 6.333 3.647l.108.014c.869.203 1.823.308 2.847.303h.017c3.556 0 6.66-1.335 9.228-3.97L36.577 45.27c2.555-2.666 3.848-5.873 3.842-9.53-.002-3.623-1.178-6.764-3.497-9.333a1.005 1.005 0 0 0-.72-.311"/><path d="M58.486 4.021a.777.777 0 0 0-.224-.166l-.138-.103C56.766 2.315 55.176 1.278 53.386.66L52.185.354A12.375 12.375 0 0 0 49.19 0c-3.631 0-6.74 1.334-9.237 3.964l-14.06 14.492-.141.198c-2.583 2.664-3.893 5.89-3.893 9.583-.003 3.54 1.142 6.664 3.402 9.288.204.216.446.338.726.355a.93.93 0 0 0 .742-.28c.235-.21.344-.452.36-.778.018-.284-.07-.52-.277-.746-1.917-2.225-2.886-4.859-2.89-7.839 0-3.105 1.096-5.817 3.256-8.059L41.377 5.543c2.118-2.237 4.748-3.374 7.812-3.374.016.003.035.001.053 0 .874 0 1.705.094 2.469.28 2.008.46 3.76 1.487 5.204 3.051.112.136.207.224.304.284l.106.09c1.89 2.082 2.846 4.647 2.837 7.626.012 3.196-1.031 5.91-3.102 8.058L44.752 34.29c-.18.2-.271.452-.268.757.002.306.102.548.314.763.212.224.438.325.72.327a.911.911 0 0 0 .702-.314l12.265-12.739c2.472-2.55 3.73-5.774 3.742-9.586-.01-3.735-1.267-6.925-3.741-9.476"/></g></svg>