<svg width="349" height="77" xmlns="http://www.w3.org/2000/svg" xmlns:xlink="http://www.w3.org/1999/xlink"><defs><path id="a" d="M0 .277h62.87V77H0z"/><path id="c" d="M0 77h349V0H0z"/></defs><g fill="none" fill-rule="evenodd"><path d="M67 14c.17.33.336.663.5 1a4.93 4.93 0 0 0-.5-1" fill="#1D1E1C"/><mask id="b" fill="#fff"><use xlink:href="#a"/></mask><path d="M58.492 63.41c-5.53 4.598-12.615 7.37-20.336 7.37-17.628 0-31.97-14.419-31.97-32.142 0-17.722 14.342-32.14 31.97-32.14 7.72 0 14.802 2.77 20.332 7.367a6.772 6.772 0 0 1 4.37-4.435C56.197 3.727 47.571.277 38.156.277 17.116.277 0 17.486 0 38.638 0 59.791 17.117 77 38.156 77c9.42 0 18.051-3.454 24.714-9.164a6.772 6.772 0 0 1-4.378-4.425" fill="#1AA7DF" mask="url(#b)"/><path d="M67.988 63.558c-.193.225-.342.412-.61.644A3.27 3.27 0 0 1 65.23 65C63.446 65 62 63.597 62 61.866c0-.684.228-1.314.61-1.83.117-.13.232-.262.346-.395 4.396-5.118 7.183-11.577 7.615-18.641H77c-.437 8.537-3.732 16.374-9.012 22.558M46.787 47.973a15.63 15.63 0 0 1-.328.429c-.29.457-.459.99-.459 1.562C46 51.641 47.43 53 49.192 53c.894 0 1.7-.35 2.28-.913.187-.233.368-.47.544-.71C54.221 48.385 55.644 44.837 56 41h-6.373a14.895 14.895 0 0 1-2.84 6.973M59.846 41a23.682 23.682 0 0 1-5.236 13.042 3.099 3.099 0 0 0-.61 1.86A3.095 3.095 0 0 0 57.092 59c.76 0 1.449-.251 1.993-.73.314-.324.503-.619.747-.935A29.798 29.798 0 0 0 66 41h-6.154zm8.142-26.558c-.193-.225-.342-.412-.61-.644A3.27 3.27 0 0 0 65.23 13C63.446 13 62 14.403 62 16.134c0 .683.228 1.314.61 1.829.117.131.232.263.346.396 4.396 5.118 7.183 11.577 7.615 18.641H77c-.437-8.536-3.732-16.374-9.012-22.558M46.787 29.027a15.63 15.63 0 0 0-.328-.429A2.909 2.909 0 0 1 46 27.036C46 25.359 47.43 24 49.192 24c.894 0 1.7.35 2.28.913.187.233.368.47.544.71C54.221 28.617 55.644 32.164 56 36h-6.373a14.894 14.894 0 0 0-2.84-6.973M59.846 37a23.68 23.68 0 0 0-5.236-13.042 3.1 3.1 0 0 1-.61-1.86A3.095 3.095 0 0 1 57.092 19c.76 0 1.449.252 1.993.73.314.325.503.619.747.935A29.8 29.8 0 0 1 66 37h-6.154zM38.5 47c3.605 0 6.627-2.55 7.5-6H31c.873 3.45 3.895 6 7.5 6m0-16c-3.616 0-6.644 2.553-7.5 6h15c-.856-3.447-3.884-6-7.5-6m82.35 13.284L114.62 22h-5.104l-6.23 22.284-5.923-22.238H91l9.379 32.69.076.264h5.282l6.24-21.665L118.217 55h5.281L133 22.046h-6.227zm20.405-6.561c0-6.614 3.304-11.058 8.222-11.058 5 0 8.36 4.481 8.36 11.15v.461c0 6.615-3.323 11.06-8.268 11.06-4.973 0-8.314-4.482-8.314-11.152v-.46zM149.569 21C140.99 21 135 27.915 135 37.816v.46C135 48.123 140.953 55 149.477 55c4.12 0 7.84-1.69 10.472-4.758C162.56 47.198 164 42.916 164 38.184v-.46C164 27.876 158.066 21 149.569 21zm25.514 6.575h5.623c3.835 0 5.948 1.833 5.948 5.164 0 3.428-2.134 5.393-5.855 5.393h-5.716V27.575zm17.748 5.071c0-6.666-4.411-10.646-11.8-10.646H169v33h6.083V43.615h3.393l.104-.002c.222-.005.785-.019 1.193-.019.11 0 .19.001.247.003L186.908 55H194l-7.728-12.669c4.234-1.645 6.559-5.068 6.559-9.685zM203.077 22H197v33h20v-5.667h-13.923zm27.905 27.425h-4.146v-21.85h4.146c5.443 0 8.96 4.216 8.96 10.74v.415c0 6.597-3.434 10.695-8.96 10.695M230.848 22H221v33h9.848c4.423 0 8.214-1.571 10.964-4.544 2.74-2.961 4.188-7.032 4.188-11.772v-.415C246 28.54 239.911 22 230.848 22" fill="#094676"/><path fill="#1AA7DF" d="M288.85 44.284L282.62 22h-5.104l-6.23 22.284-5.923-22.238H259l9.38 32.69.075.264h5.282l6.24-21.665L286.217 55h5.282L301 22.046h-6.227z"/><mask id="d" fill="#fff"><use xlink:href="#c"/></mask><path fill="#1AA7DF" mask="url(#d)" d="M305 55h6V22h-6zm12 0h6.07V41.633h13.261v-5.62h-13.26v-8.346H338V22h-21zm26 0h6V22h-6z"/></g></svg>