<svg width="86" height="106" xmlns="http://www.w3.org/2000/svg" xmlns:xlink="http://www.w3.org/1999/xlink"><defs><path id="a" d="M.003.345h85.636V106H.003z"/></defs><g fill="none" fill-rule="evenodd"><mask id="b" fill="#fff"><use xlink:href="#a"/></mask><path d="M62.617 85.322c-4.287 4.68-9.04 9.179-14.143 13.384-.846.696-4.848 3.855-4.848 3.855l-.804.634-.81-.634s-4.027-3.174-4.853-3.86c-5.107-4.216-9.866-8.715-14.143-13.38C9.464 70.536 2.598 56.25 2.598 42.865c0-22.028 18.04-39.943 40.224-39.943 22.178 0 40.224 17.915 40.224 39.943 0 13.385-6.877 27.671-20.429 42.458M42.822.344C19.212.344.002 19.42.002 42.864c0 14.05 7.096 28.918 21.099 44.194 4.323 4.721 9.171 9.308 14.403 13.627a126.36 126.36 0 0 0 4.749 3.752 66.92 66.92 0 0 0 1.822 1.33 1.31 1.31 0 0 0 1.49 0c.342-.237.96-.685 1.82-1.33a126.36 126.36 0 0 0 4.75-3.752c5.242-4.329 10.09-8.916 14.408-13.627 13.998-15.28 21.098-30.15 21.098-44.194 0-23.445-19.214-42.52-42.82-42.52" fill="#005885" mask="url(#b)"/><path d="M43.503 53.381l-11.855 6.152 2.26-13.03-9.594-9.233 13.259-1.901 5.93-11.856 5.93 11.856 13.258 1.9-9.594 9.234 2.26 13.03-11.854-6.152zM68 35.564l-16.928-2.426L43.502 18l-7.568 15.138L19 35.564l12.251 11.789L28.36 64l15.144-7.857L58.64 64l-2.887-16.647L68 35.564z" fill="#005885"/></g></svg>