<svg width="44" height="33" xmlns="http://www.w3.org/2000/svg"><path d="M19.121 10.924l8.197 5.218-8.197 5.201v-10.42zm-1.024-2.931c-.497.025-.929.54-.915 1.087v14.124c-.009.38.182.758.481.947a.906.906 0 0 0 .986-.018l11.097-7.06c.602-.364.602-1.499 0-1.862L18.649 8.15a.904.904 0 0 0-.552-.158zM5.044 2.018h33.292a2.998 2.998 0 0 1 3.027 3.026V27.24a2.998 2.998 0 0 1-3.027 3.027H5.044a2.998 2.998 0 0 1-3.026-3.027V5.044a2.998 2.998 0 0 1 3.026-3.026zm0-2.018A5.056 5.056 0 0 0 0 5.044V27.24a5.055 5.055 0 0 0 5.044 5.044h33.292a5.055 5.055 0 0 0 5.045-5.044V5.044A5.055 5.055 0 0 0 38.336 0H5.044z" fill="#005885" fill-rule="evenodd"/></svg>