<svg width="47" height="40" xmlns="http://www.w3.org/2000/svg"><path d="M44.761 30.586c.01.063-.002.113-.033.149-.037.043-.105.067-.185.067H2.078a.272.272 0 0 1-.264-.264V27.88h42.944l.003 2.705zM1.814 26.067V2.078c0-.108.094-.265.264-.265h42.465c.109 0 .265.094.265.265v23.99H1.814zM20.603 37.93h5.364v-5.315h-5.364v5.315zM44.543 0H2.078C.95 0 0 .952 0 2.078v28.51c0 1.126.951 2.078 2.078 2.078H18.79v5.264h-6.147a.944.944 0 0 0-.932.931c0 .505.427.932.932.932h21.332a.944.944 0 0 0 .932-.932.944.944 0 0 0-.932-.931H27.83v-5.314h16.712c1.127 0 2.079-.952 2.079-2.078V2.078C46.622.952 45.67 0 44.543 0z" fill="#005885" fill-rule="evenodd"/></svg>