<svg width="46" height="31" xmlns="http://www.w3.org/2000/svg"><path d="M20.158 24.157a2.19 2.19 0 0 1 2.188 2.189 2.191 2.191 0 0 1-2.188 2.189 2.191 2.191 0 0 1-2.19-2.19c0-1.206.983-2.188 2.19-2.188m13.751 0c1.207 0 2.19.982 2.19 2.189a2.192 2.192 0 0 1-2.19 2.189 2.191 2.191 0 0 1-2.188-2.19 2.19 2.19 0 0 1 2.188-2.188M44.797 4.5a.906.906 0 0 0-1.106.645L40.953 15.55c-.284 1.075-1.46 1.984-2.573 1.984H14.347L10.029 2.038a.908.908 0 0 0-.723-.65L1.056.013a.902.902 0 0 0-.886 1.42.9.9 0 0 0 .587.366l7.679 1.28 5.693 20.416a.91.91 0 0 0 .872.662h1.735l-.271.651a4.003 4.003 0 0 0 3.693 5.537 4.004 4.004 0 0 0 3.693-5.538l-.271-.65h6.907l-.27.65a4.004 4.004 0 0 0 3.693 5.538 4.003 4.003 0 0 0 3.692-5.538l-.27-.65h2.421c.5 0 .906-.407.906-.905 0-.573-.573-1.012-1.124-.879l-.114.014H15.699l-.847-3.043H38.38c1.933 0 3.833-1.465 4.324-3.334l2.738-10.405a.898.898 0 0 0-.094-.686.897.897 0 0 0-.55-.42" fill="#005885" fill-rule="evenodd"/></svg>