<svg width="33" height="33" xmlns="http://www.w3.org/2000/svg"><path d="M5.074 5.087a10.217 10.217 0 0 1 7.281-3.024 10.22 10.22 0 0 1 7.282 3.024c4.017 4.025 4.017 10.577 0 14.603a10.218 10.218 0 0 1-7.282 3.024c-2.75 0-5.336-1.073-7.281-3.024-4.018-4.026-4.018-10.578 0-14.603m7.281 19.69c2.974 0 5.783-1.053 8.018-2.97l10.865 10.89a1.032 1.032 0 1 0 1.46-1.456L21.824 20.342c4.072-4.86 3.833-12.139-.726-16.709A12.253 12.253 0 0 0 12.355 0a12.26 12.26 0 0 0-8.74 3.631c-4.82 4.829-4.82 12.687 0 17.516a12.262 12.262 0 0 0 8.74 3.63" fill="#005885" fill-rule="evenodd"/></svg>