<svg width="52" height="53" xmlns="http://www.w3.org/2000/svg"><g fill="none" fill-rule="evenodd"><path d="M50.644 26.265c0 13.708-11.113 24.822-24.822 24.822S1 39.973 1 26.265C1 12.555 12.113 1.443 25.822 1.443s24.822 11.113 24.822 24.822z" stroke="#4D76A1" stroke-width="2" fill="#EBEBEB"/><path d="M26.833 37.151s.588-.064.889-.388c.276-.297.267-.856.267-.856s-.038-2.614 1.176-2.999c1.196-.38 2.731 2.527 4.36 3.644 1.23.845 2.166.66 2.166.66l4.352-.06s2.277-.14 1.198-1.931c-.089-.147-.63-1.324-3.237-3.745-2.729-2.533-2.363-2.123.924-6.505 2.003-2.669 2.803-4.298 2.553-4.996-.239-.664-1.711-.489-1.711-.489l-4.901.03s-.363-.049-.633.112c-.263.158-.432.527-.432.527s-.776 2.065-1.81 3.82c-2.183 3.707-3.056 3.902-3.412 3.672-.83-.536-.623-2.154-.623-3.304 0-3.591.545-5.088-1.06-5.476-.533-.129-.925-.214-2.287-.227-1.75-.019-3.23.005-4.067.415-.558.273-.988.882-.726.917.324.043 1.058.198 1.446.727.503.683.485 2.218.485 2.218s.288 4.227-.674 4.752c-.66.36-1.567-.375-3.512-3.737-.997-1.722-1.75-3.625-1.75-3.625s-.145-.356-.404-.546c-.314-.23-.753-.304-.753-.304l-4.657.03s-.7.02-.956.324c-.228.27-.018.83-.018.83s3.646 8.53 7.774 12.828c3.786 3.941 8.085 3.682 8.085 3.682h1.948z" fill="#4D76A1"/></g></svg>